<svg xmlns="http://www.w3.org/2000/svg" viewBox="0 0 512 512" width="512" height="512">
  <rect width="512" height="512" fill="#1a1a1a" rx="64"/>
  <path d="M256 120c-52.8 0-96 43.2-96 96 0 36 20 67.2 49.6 83.2-4.8 28.8-20 54.4-42.4 72-4.8 3.2-6.4 9.6-3.2 14.4 2.4 3.2 6.4 4.8 10.4 4.8 1.6 0 4-0.8 5.6-1.6 32-24 52.8-58.4 59.2-96.8 4.8 0.8 10.4 1.6 16 1.6 52.8 0 96-43.2 96-96S308.8 120 256 120z" fill="#00D4AA"/>
  <circle cx="256" cy="372" r="24" fill="#00D4AA"/>
  <path d="M200 72c-8.8-4.8-16.8-2.4-24 4.8-6.4 6.4-9.6 14.4-4.8 24 8 16 24 24 40 24s32-8 40-24c4.8-9.6 1.6-17.6-4.8-24-7.2-7.2-15.2-9.6-24-4.8-4 2.4-8.8 8-11.2 12.8-2.4-4.8-7.2-10.4-11.2-12.8z" fill="#00D4AA" opacity="0.7"/>
  <path d="M312 72c-8.8-4.8-16.8-2.4-24 4.8-6.4 6.4-9.6 14.4-4.8 24 8 16 24 24 40 24s32-8 40-24c4.8-9.6 1.6-17.6-4.8-24-7.2-7.2-15.2-9.6-24-4.8-4 2.4-8.8 8-11.2 12.8-2.4-4.8-7.2-10.4-11.2-12.8z" fill="#00D4AA" opacity="0.7"/>
</svg>
